<svg xmlns="http://www.w3.org/2000/svg" xmlns:xlink="http://www.w3.org/1999/xlink" width="500" zoomAndPan="magnify" viewBox="0 0 375 149.999998" height="200" preserveAspectRatio="xMidYMid meet" version="1.0"><defs><g/><clipPath id="f7b4af53b6"><path d="M 22.847656 46.507812 L 67.628906 46.507812 L 67.628906 98.546875 L 22.847656 98.546875 Z M 22.847656 46.507812 " clip-rule="nonzero"/></clipPath><clipPath id="70679cb8b2"><path d="M 9.878906 40.796875 L 51 40.796875 L 51 90 L 9.878906 90 Z M 9.878906 40.796875 " clip-rule="nonzero"/></clipPath></defs><path fill="#008b95" d="M 26.855469 94.011719 L 26.855469 89.308594 C 31.089844 84.382812 31.644531 79.363281 30.382812 73.984375 C 28.675781 66.714844 22.523438 62.023438 20.101562 60.421875 C 22.699219 61.527344 29.707031 65.0625 32.703125 72 C 35.683594 78.902344 35.238281 85.738281 26.855469 94.011719 " fill-opacity="1" fill-rule="nonzero"/><g clip-path="url(#f7b4af53b6)"><path fill="#f29e23" d="M 55.769531 57.800781 C 52.492188 62.90625 50.734375 68.859375 50.734375 68.859375 C 51.472656 63.082031 53.925781 57.800781 53.925781 57.800781 C 56.808594 50.625 60.59375 46.550781 60.59375 46.550781 C 60.589844 46.554688 60.585938 46.558594 60.582031 46.558594 C 60.199219 46.816406 52.625 49.710938 45.953125 73.382812 C 40.144531 93.980469 22.875 97.492188 22.875 97.492188 C 22.875 97.492188 24.535156 97.421875 26.855469 96.910156 L 26.855469 98.820312 L 41.226562 98.820312 C 46.476562 98.820312 50.734375 94.5625 50.734375 89.308594 L 50.734375 81.683594 L 67.710938 81.683594 L 67.710938 67.3125 C 67.710938 62.058594 63.453125 57.800781 58.199219 57.800781 L 55.769531 57.800781 " fill-opacity="1" fill-rule="nonzero"/></g><g clip-path="url(#70679cb8b2)"><path fill="#06a9b1" d="M 42.144531 62.960938 C 42.074219 63.546875 41.910156 64.09375 41.671875 64.582031 C 41.195312 65.542969 40.40625 66.265625 39.402344 66.535156 C 37.269531 67.109375 34.972656 65.441406 34.265625 62.808594 C 34.230469 62.679688 34.199219 62.550781 34.175781 62.421875 C 33.972656 61.414062 34.039062 60.425781 34.320312 59.570312 C 34.53125 57.832031 35.550781 56.402344 37.066406 55.996094 C 39.195312 55.421875 41.496094 57.089844 42.203125 59.722656 C 42.507812 60.863281 42.464844 61.996094 42.144531 62.960938 Z M 36.363281 40.828125 C 31.113281 40.828125 26.855469 45.085938 26.855469 50.339844 L 26.855469 57.800781 L 9.878906 57.800781 L 9.878906 72.171875 C 9.878906 75.828125 11.941406 79 14.964844 80.59375 C 16.289062 81.289062 17.792969 81.683594 19.390625 81.683594 L 26.855469 81.683594 L 26.855469 89.308594 C 31.09375 84.382812 31.644531 79.363281 30.382812 73.984375 C 28.675781 66.714844 22.523438 62.023438 20.101562 60.421875 C 19.480469 60.15625 19.113281 60.03125 19.113281 60.03125 C 19.277344 60.050781 19.4375 60.074219 19.59375 60.097656 C 19.832031 60.128906 20.066406 60.164062 20.300781 60.203125 C 26.660156 61.242188 31.402344 63.980469 34.625 66.5625 C 35.53125 67.285156 36.3125 68 36.980469 68.65625 C 38.558594 70.214844 39.472656 71.472656 39.757812 71.878906 C 39.820312 71.972656 39.851562 72.023438 39.851562 72.023438 C 39.941406 71.808594 40.03125 71.597656 40.125 71.386719 C 43.355469 63.925781 47.230469 58.480469 50.734375 54.625 L 50.734375 40.828125 L 36.363281 40.828125 " fill-opacity="1" fill-rule="nonzero"/></g><path fill="#008b95" d="M 42.144531 62.960938 C 42.074219 63.546875 41.910156 64.09375 41.671875 64.582031 C 41.195312 65.542969 40.40625 66.265625 39.402344 66.535156 C 37.269531 67.109375 34.972656 65.441406 34.265625 62.808594 C 34.230469 62.679688 34.199219 62.550781 34.175781 62.421875 C 33.972656 61.414062 34.039062 60.425781 34.320312 59.570312 C 34.25 60.15625 34.273438 60.777344 34.398438 61.410156 C 34.425781 61.539062 34.457031 61.667969 34.492188 61.796875 C 35.195312 64.425781 37.496094 66.09375 39.625 65.519531 C 40.632812 65.25 41.417969 64.53125 41.894531 63.566406 C 41.992188 63.375 42.074219 63.171875 42.144531 62.960938 " fill-opacity="1" fill-rule="nonzero"/><g fill="#000000" fill-opacity="1"><g transform="translate(71.851215, 84.927862)"><g><path d="M 2.078125 -27.953125 L 11.453125 -27.953125 C 13.921875 -27.953125 15.765625 -27.253906 16.984375 -25.859375 C 18.203125 -24.472656 18.8125 -22.46875 18.8125 -19.84375 C 18.8125 -16.851562 18.101562 -14.773438 16.6875 -13.609375 C 15.269531 -12.453125 13.285156 -11.875 10.734375 -11.875 L 8.25 -11.875 L 8.25 0 L 2.078125 0 Z M 10.3125 -16.1875 C 11.394531 -16.1875 12.113281 -16.472656 12.46875 -17.046875 C 12.832031 -17.617188 13.015625 -18.585938 13.015625 -19.953125 C 13.015625 -21.191406 12.84375 -22.109375 12.5 -22.703125 C 12.15625 -23.304688 11.414062 -23.609375 10.28125 -23.609375 L 8.25 -23.609375 L 8.25 -16.1875 Z M 10.3125 -16.1875 "/></g></g></g><g fill="#000000" fill-opacity="1"><g transform="translate(91.561883, 84.927862)"><g><path d="M 5.28125 0.34375 C 4.082031 0.34375 3.160156 -0.0859375 2.515625 -0.953125 C 1.867188 -1.816406 1.546875 -2.9375 1.546875 -4.3125 L 1.546875 -19.953125 L 7.171875 -19.953125 L 7.171875 -4.96875 C 7.171875 -4.457031 7.265625 -4.078125 7.453125 -3.828125 C 7.640625 -3.578125 7.941406 -3.453125 8.359375 -3.453125 C 8.722656 -3.453125 9.273438 -3.660156 10.015625 -4.078125 L 10.015625 -19.953125 L 15.59375 -19.953125 L 15.59375 0 L 10.015625 0 L 10.015625 -1.828125 C 8.441406 -0.378906 6.863281 0.34375 5.28125 0.34375 Z M 5.28125 0.34375 "/></g></g></g><g fill="#000000" fill-opacity="1"><g transform="translate(108.959731, 84.927862)"><g><path d="M 7.90625 0.34375 C 6.132812 0.34375 4.664062 -0.0507812 3.5 -0.84375 C 2.34375 -1.632812 1.40625 -2.90625 0.6875 -4.65625 L 4.515625 -6.34375 C 4.890625 -5.425781 5.320312 -4.710938 5.8125 -4.203125 C 6.3125 -3.703125 6.859375 -3.453125 7.453125 -3.453125 C 8.328125 -3.453125 8.765625 -3.796875 8.765625 -4.484375 C 8.765625 -4.992188 8.59375 -5.445312 8.25 -5.84375 C 7.90625 -6.25 7.15625 -6.925781 6 -7.875 L 4.5625 -9.078125 C 3.363281 -10.085938 2.492188 -11.003906 1.953125 -11.828125 C 1.410156 -12.660156 1.140625 -13.65625 1.140625 -14.8125 C 1.140625 -15.863281 1.421875 -16.800781 1.984375 -17.625 C 2.546875 -18.457031 3.296875 -19.109375 4.234375 -19.578125 C 5.179688 -20.054688 6.195312 -20.296875 7.28125 -20.296875 C 8.914062 -20.296875 10.28125 -19.851562 11.375 -18.96875 C 12.46875 -18.082031 13.242188 -16.8125 13.703125 -15.15625 L 10.078125 -13.5 C 9.847656 -14.226562 9.488281 -14.882812 9 -15.46875 C 8.519531 -16.0625 7.992188 -16.359375 7.421875 -16.359375 C 7.054688 -16.359375 6.765625 -16.253906 6.546875 -16.046875 C 6.328125 -15.835938 6.21875 -15.5625 6.21875 -15.21875 C 6.21875 -14.800781 6.441406 -14.351562 6.890625 -13.875 C 7.335938 -13.394531 8.046875 -12.765625 9.015625 -11.984375 L 10.421875 -10.734375 C 11.578125 -9.765625 12.460938 -8.859375 13.078125 -8.015625 C 13.703125 -7.179688 14.015625 -6.203125 14.015625 -5.078125 C 14.015625 -3.941406 13.734375 -2.96875 13.171875 -2.15625 C 12.609375 -1.34375 11.859375 -0.722656 10.921875 -0.296875 C 9.992188 0.128906 8.988281 0.34375 7.90625 0.34375 Z M 7.90625 0.34375 "/></g></g></g><g fill="#000000" fill-opacity="1"><g transform="translate(123.596011, 84.927862)"><g><path d="M 1.765625 -27.953125 L 7.359375 -27.953125 L 7.359375 -12.453125 L 12.25 -19.953125 L 18.5625 -19.953125 L 13.25 -11.765625 L 18.5 0 L 12.359375 0 L 8.84375 -9.484375 L 7.359375 -7.59375 L 7.359375 0 L 1.765625 0 Z M 1.765625 -27.953125 "/></g></g></g><g fill="#000000" fill-opacity="1"><g transform="translate(142.271087, 84.927862)"><g><path d="M 8.28125 0.34375 C 6.09375 0.34375 4.390625 -0.234375 3.171875 -1.390625 C 1.953125 -2.554688 1.34375 -4.195312 1.34375 -6.3125 L 1.34375 -13.640625 C 1.34375 -15.753906 1.953125 -17.390625 3.171875 -18.546875 C 4.390625 -19.710938 6.09375 -20.296875 8.28125 -20.296875 C 10.488281 -20.296875 12.144531 -19.726562 13.25 -18.59375 C 14.351562 -17.46875 14.90625 -15.816406 14.90625 -13.640625 L 14.90625 -9.625 L 6.90625 -9.625 L 6.90625 -5.796875 C 6.90625 -4.367188 7.363281 -3.65625 8.28125 -3.65625 C 9.25 -3.65625 9.734375 -4.300781 9.734375 -5.59375 L 9.734375 -7.703125 L 14.90625 -7.703125 L 14.90625 -5.765625 C 14.90625 -3.765625 14.320312 -2.242188 13.15625 -1.203125 C 12 -0.171875 10.375 0.34375 8.28125 0.34375 Z M 9.734375 -12.25 L 9.734375 -14.25 C 9.734375 -14.988281 9.597656 -15.515625 9.328125 -15.828125 C 9.066406 -16.140625 8.707031 -16.296875 8.25 -16.296875 C 7.8125 -16.296875 7.476562 -16.117188 7.25 -15.765625 C 7.019531 -15.421875 6.90625 -14.8125 6.90625 -13.9375 L 6.90625 -12.25 Z M 9.734375 -12.25 "/></g></g></g><g fill="#000000" fill-opacity="1"><g transform="translate(158.495276, 84.927862)"><g><path d="M 7.90625 0.34375 C 6.132812 0.34375 4.664062 -0.0507812 3.5 -0.84375 C 2.34375 -1.632812 1.40625 -2.90625 0.6875 -4.65625 L 4.515625 -6.34375 C 4.890625 -5.425781 5.320312 -4.710938 5.8125 -4.203125 C 6.3125 -3.703125 6.859375 -3.453125 7.453125 -3.453125 C 8.328125 -3.453125 8.765625 -3.796875 8.765625 -4.484375 C 8.765625 -4.992188 8.59375 -5.445312 8.25 -5.84375 C 7.90625 -6.25 7.15625 -6.925781 6 -7.875 L 4.5625 -9.078125 C 3.363281 -10.085938 2.492188 -11.003906 1.953125 -11.828125 C 1.410156 -12.660156 1.140625 -13.65625 1.140625 -14.8125 C 1.140625 -15.863281 1.421875 -16.800781 1.984375 -17.625 C 2.546875 -18.457031 3.296875 -19.109375 4.234375 -19.578125 C 5.179688 -20.054688 6.195312 -20.296875 7.28125 -20.296875 C 8.914062 -20.296875 10.28125 -19.851562 11.375 -18.96875 C 12.46875 -18.082031 13.242188 -16.8125 13.703125 -15.15625 L 10.078125 -13.5 C 9.847656 -14.226562 9.488281 -14.882812 9 -15.46875 C 8.519531 -16.0625 7.992188 -16.359375 7.421875 -16.359375 C 7.054688 -16.359375 6.765625 -16.253906 6.546875 -16.046875 C 6.328125 -15.835938 6.21875 -15.5625 6.21875 -15.21875 C 6.21875 -14.800781 6.441406 -14.351562 6.890625 -13.875 C 7.335938 -13.394531 8.046875 -12.765625 9.015625 -11.984375 L 10.421875 -10.734375 C 11.578125 -9.765625 12.460938 -8.859375 13.078125 -8.015625 C 13.703125 -7.179688 14.015625 -6.203125 14.015625 -5.078125 C 14.015625 -3.941406 13.734375 -2.96875 13.171875 -2.15625 C 12.609375 -1.34375 11.859375 -0.722656 10.921875 -0.296875 C 9.992188 0.128906 8.988281 0.34375 7.90625 0.34375 Z M 7.90625 0.34375 "/></g></g></g><g fill="#000000" fill-opacity="1"><g transform="translate(173.131556, 84.927862)"><g><path d="M 1.765625 -19.953125 L 7.28125 -19.953125 L 7.28125 -18.359375 C 8.613281 -19.671875 10.191406 -20.328125 12.015625 -20.328125 C 12.816406 -20.328125 13.507812 -20.125 14.09375 -19.71875 C 14.6875 -19.320312 15.128906 -18.734375 15.421875 -17.953125 C 16.828125 -19.535156 18.519531 -20.328125 20.5 -20.328125 C 21.675781 -20.328125 22.613281 -19.894531 23.3125 -19.03125 C 24.019531 -18.164062 24.375 -16.988281 24.375 -15.5 L 24.375 0 L 18.84375 0 L 18.84375 -14.90625 C 18.84375 -15.457031 18.742188 -15.851562 18.546875 -16.09375 C 18.359375 -16.34375 18.066406 -16.46875 17.671875 -16.46875 C 17.421875 -16.46875 17.117188 -16.398438 16.765625 -16.265625 C 16.421875 -16.140625 16.101562 -15.960938 15.8125 -15.734375 L 15.8125 0 L 10.359375 0 L 10.359375 -14.90625 C 10.359375 -15.945312 9.953125 -16.46875 9.140625 -16.46875 C 8.617188 -16.46875 8 -16.222656 7.28125 -15.734375 L 7.28125 0 L 1.765625 0 Z M 1.765625 -19.953125 "/></g></g></g><g fill="#000000" fill-opacity="1"><g transform="translate(199.124772, 84.927862)"><g><path d="M 5.875 0.34375 C 4.90625 0.34375 4.066406 0.109375 3.359375 -0.359375 C 2.660156 -0.828125 2.132812 -1.4375 1.78125 -2.1875 C 1.425781 -2.9375 1.25 -3.710938 1.25 -4.515625 C 1.25 -6.054688 1.640625 -7.320312 2.421875 -8.3125 C 3.203125 -9.300781 4.140625 -10.070312 5.234375 -10.625 C 6.328125 -11.175781 7.734375 -11.753906 9.453125 -12.359375 L 9.453125 -14.359375 C 9.453125 -14.929688 9.363281 -15.367188 9.1875 -15.671875 C 9.019531 -15.972656 8.71875 -16.125 8.28125 -16.125 C 7.84375 -16.125 7.53125 -15.984375 7.34375 -15.703125 C 7.164062 -15.429688 7.066406 -15.039062 7.046875 -14.53125 L 6.90625 -13.078125 L 1.65625 -13.28125 C 1.75 -15.675781 2.378906 -17.441406 3.546875 -18.578125 C 4.722656 -19.722656 6.472656 -20.296875 8.796875 -20.296875 C 10.753906 -20.296875 12.25 -19.75 13.28125 -18.65625 C 14.320312 -17.5625 14.84375 -16.109375 14.84375 -14.296875 L 14.84375 -4.96875 C 14.84375 -2.945312 14.957031 -1.289062 15.1875 0 L 10.140625 0 C 9.941406 -1.539062 9.796875 -2.484375 9.703125 -2.828125 C 9.421875 -1.910156 8.957031 -1.148438 8.3125 -0.546875 C 7.675781 0.046875 6.863281 0.34375 5.875 0.34375 Z M 7.875 -3.453125 C 8.445312 -3.453125 8.972656 -3.785156 9.453125 -4.453125 L 9.453125 -9.90625 C 8.421875 -9.3125 7.640625 -8.6875 7.109375 -8.03125 C 6.578125 -7.375 6.3125 -6.570312 6.3125 -5.625 C 6.3125 -4.957031 6.445312 -4.425781 6.71875 -4.03125 C 7 -3.644531 7.382812 -3.453125 7.875 -3.453125 Z M 7.875 -3.453125 "/></g></g></g><g fill="#000000" fill-opacity="1"><g transform="translate(215.556074, 84.927862)"><g><path d="M 7.90625 0.34375 C 6.132812 0.34375 4.664062 -0.0507812 3.5 -0.84375 C 2.34375 -1.632812 1.40625 -2.90625 0.6875 -4.65625 L 4.515625 -6.34375 C 4.890625 -5.425781 5.320312 -4.710938 5.8125 -4.203125 C 6.3125 -3.703125 6.859375 -3.453125 7.453125 -3.453125 C 8.328125 -3.453125 8.765625 -3.796875 8.765625 -4.484375 C 8.765625 -4.992188 8.59375 -5.445312 8.25 -5.84375 C 7.90625 -6.25 7.15625 -6.925781 6 -7.875 L 4.5625 -9.078125 C 3.363281 -10.085938 2.492188 -11.003906 1.953125 -11.828125 C 1.410156 -12.660156 1.140625 -13.65625 1.140625 -14.8125 C 1.140625 -15.863281 1.421875 -16.800781 1.984375 -17.625 C 2.546875 -18.457031 3.296875 -19.109375 4.234375 -19.578125 C 5.179688 -20.054688 6.195312 -20.296875 7.28125 -20.296875 C 8.914062 -20.296875 10.28125 -19.851562 11.375 -18.96875 C 12.46875 -18.082031 13.242188 -16.8125 13.703125 -15.15625 L 10.078125 -13.5 C 9.847656 -14.226562 9.488281 -14.882812 9 -15.46875 C 8.519531 -16.0625 7.992188 -16.359375 7.421875 -16.359375 C 7.054688 -16.359375 6.765625 -16.253906 6.546875 -16.046875 C 6.328125 -15.835938 6.21875 -15.5625 6.21875 -15.21875 C 6.21875 -14.800781 6.441406 -14.351562 6.890625 -13.875 C 7.335938 -13.394531 8.046875 -12.765625 9.015625 -11.984375 L 10.421875 -10.734375 C 11.578125 -9.765625 12.460938 -8.859375 13.078125 -8.015625 C 13.703125 -7.179688 14.015625 -6.203125 14.015625 -5.078125 C 14.015625 -3.941406 13.734375 -2.96875 13.171875 -2.15625 C 12.609375 -1.34375 11.859375 -0.722656 10.921875 -0.296875 C 9.992188 0.128906 8.988281 0.34375 7.90625 0.34375 Z M 7.90625 0.34375 "/></g></g></g><g fill="#000000" fill-opacity="1"><g transform="translate(230.192354, 84.927862)"><g/></g></g><g fill="#000000" fill-opacity="1"><g transform="translate(239.029358, 84.927862)"><g><path d="M 10.078125 0.421875 C 7.035156 0.421875 4.875 -0.378906 3.59375 -1.984375 C 2.320312 -3.585938 1.6875 -5.894531 1.6875 -8.90625 L 1.6875 -18.984375 C 1.6875 -22.066406 2.316406 -24.394531 3.578125 -25.96875 C 4.847656 -27.550781 7.015625 -28.34375 10.078125 -28.34375 C 13.003906 -28.34375 15.078125 -27.640625 16.296875 -26.234375 C 17.515625 -24.828125 18.125 -22.835938 18.125 -20.265625 L 18.125 -17.84375 L 12.078125 -17.84375 L 12.078125 -20.640625 C 12.078125 -21.722656 11.960938 -22.550781 11.734375 -23.125 C 11.503906 -23.695312 10.953125 -23.984375 10.078125 -23.984375 C 9.203125 -23.984375 8.625 -23.675781 8.34375 -23.0625 C 8.070312 -22.457031 7.9375 -21.613281 7.9375 -20.53125 L 7.9375 -7.390625 C 7.9375 -6.285156 8.078125 -5.4375 8.359375 -4.84375 C 8.648438 -4.257812 9.222656 -3.96875 10.078125 -3.96875 C 10.929688 -3.96875 11.476562 -4.257812 11.71875 -4.84375 C 11.957031 -5.4375 12.078125 -6.285156 12.078125 -7.390625 L 12.078125 -10.3125 L 18.125 -10.3125 L 18.125 -7.90625 C 18.125 -5.28125 17.515625 -3.234375 16.296875 -1.765625 C 15.078125 -0.304688 13.003906 0.421875 10.078125 0.421875 Z M 10.078125 0.421875 "/></g></g></g><g fill="#000000" fill-opacity="1"><g transform="translate(258.463866, 84.927862)"><g><path d="M 1.765625 -27.234375 L 7.421875 -27.234375 L 7.421875 -23.328125 L 1.765625 -23.328125 Z M 1.796875 -19.953125 L 7.421875 -19.953125 L 7.421875 0 L 1.796875 0 Z M 1.796875 -19.953125 "/></g></g></g><g fill="#000000" fill-opacity="1"><g transform="translate(267.611552, 84.927862)"><g><path d="M 1.765625 -27.953125 L 7.359375 -27.953125 L 7.359375 -12.453125 L 12.25 -19.953125 L 18.5625 -19.953125 L 13.25 -11.765625 L 18.5 0 L 12.359375 0 L 8.84375 -9.484375 L 7.359375 -7.59375 L 7.359375 0 L 1.765625 0 Z M 1.765625 -27.953125 "/></g></g></g><g fill="#000000" fill-opacity="1"><g transform="translate(286.286628, 84.927862)"><g><path d="M 5.875 0.34375 C 4.90625 0.34375 4.066406 0.109375 3.359375 -0.359375 C 2.660156 -0.828125 2.132812 -1.4375 1.78125 -2.1875 C 1.425781 -2.9375 1.25 -3.710938 1.25 -4.515625 C 1.25 -6.054688 1.640625 -7.320312 2.421875 -8.3125 C 3.203125 -9.300781 4.140625 -10.070312 5.234375 -10.625 C 6.328125 -11.175781 7.734375 -11.753906 9.453125 -12.359375 L 9.453125 -14.359375 C 9.453125 -14.929688 9.363281 -15.367188 9.1875 -15.671875 C 9.019531 -15.972656 8.71875 -16.125 8.28125 -16.125 C 7.84375 -16.125 7.53125 -15.984375 7.34375 -15.703125 C 7.164062 -15.429688 7.066406 -15.039062 7.046875 -14.53125 L 6.90625 -13.078125 L 1.65625 -13.28125 C 1.75 -15.675781 2.378906 -17.441406 3.546875 -18.578125 C 4.722656 -19.722656 6.472656 -20.296875 8.796875 -20.296875 C 10.753906 -20.296875 12.25 -19.75 13.28125 -18.65625 C 14.320312 -17.5625 14.84375 -16.109375 14.84375 -14.296875 L 14.84375 -4.96875 C 14.84375 -2.945312 14.957031 -1.289062 15.1875 0 L 10.140625 0 C 9.941406 -1.539062 9.796875 -2.484375 9.703125 -2.828125 C 9.421875 -1.910156 8.957031 -1.148438 8.3125 -0.546875 C 7.675781 0.046875 6.863281 0.34375 5.875 0.34375 Z M 7.875 -3.453125 C 8.445312 -3.453125 8.972656 -3.785156 9.453125 -4.453125 L 9.453125 -9.90625 C 8.421875 -9.3125 7.640625 -8.6875 7.109375 -8.03125 C 6.578125 -7.375 6.3125 -6.570312 6.3125 -5.625 C 6.3125 -4.957031 6.445312 -4.425781 6.71875 -4.03125 C 7 -3.644531 7.382812 -3.453125 7.875 -3.453125 Z M 7.875 -3.453125 "/></g></g></g><g fill="#000000" fill-opacity="1"><g transform="translate(302.717931, 84.927862)"><g><path d="M 2.203125 -27.234375 L 7.828125 -27.234375 L 7.828125 -23.328125 L 2.203125 -23.328125 Z M 2.6875 6.21875 C 1.65625 6.21875 0.65625 6.066406 -0.3125 5.765625 L -0.3125 1.71875 C 0.101562 1.8125 0.4375 1.859375 0.6875 1.859375 C 1.695312 1.859375 2.203125 1.296875 2.203125 0.171875 L 2.203125 -19.953125 L 7.828125 -19.953125 L 7.828125 0.859375 C 7.828125 2.472656 7.382812 3.769531 6.5 4.75 C 5.613281 5.726562 4.34375 6.21875 2.6875 6.21875 Z M 2.6875 6.21875 "/></g></g></g><g fill="#000000" fill-opacity="1"><g transform="translate(312.279845, 84.927862)"><g><path d="M 5.875 0.34375 C 4.90625 0.34375 4.066406 0.109375 3.359375 -0.359375 C 2.660156 -0.828125 2.132812 -1.4375 1.78125 -2.1875 C 1.425781 -2.9375 1.25 -3.710938 1.25 -4.515625 C 1.25 -6.054688 1.640625 -7.320312 2.421875 -8.3125 C 3.203125 -9.300781 4.140625 -10.070312 5.234375 -10.625 C 6.328125 -11.175781 7.734375 -11.753906 9.453125 -12.359375 L 9.453125 -14.359375 C 9.453125 -14.929688 9.363281 -15.367188 9.1875 -15.671875 C 9.019531 -15.972656 8.71875 -16.125 8.28125 -16.125 C 7.84375 -16.125 7.53125 -15.984375 7.34375 -15.703125 C 7.164062 -15.429688 7.066406 -15.039062 7.046875 -14.53125 L 6.90625 -13.078125 L 1.65625 -13.28125 C 1.75 -15.675781 2.378906 -17.441406 3.546875 -18.578125 C 4.722656 -19.722656 6.472656 -20.296875 8.796875 -20.296875 C 10.753906 -20.296875 12.25 -19.75 13.28125 -18.65625 C 14.320312 -17.5625 14.84375 -16.109375 14.84375 -14.296875 L 14.84375 -4.96875 C 14.84375 -2.945312 14.957031 -1.289062 15.1875 0 L 10.140625 0 C 9.941406 -1.539062 9.796875 -2.484375 9.703125 -2.828125 C 9.421875 -1.910156 8.957031 -1.148438 8.3125 -0.546875 C 7.675781 0.046875 6.863281 0.34375 5.875 0.34375 Z M 7.875 -3.453125 C 8.445312 -3.453125 8.972656 -3.785156 9.453125 -4.453125 L 9.453125 -9.90625 C 8.421875 -9.3125 7.640625 -8.6875 7.109375 -8.03125 C 6.578125 -7.375 6.3125 -6.570312 6.3125 -5.625 C 6.3125 -4.957031 6.445312 -4.425781 6.71875 -4.03125 C 7 -3.644531 7.382812 -3.453125 7.875 -3.453125 Z M 7.875 -3.453125 "/></g></g></g><g fill="#000000" fill-opacity="1"><g transform="translate(328.711147, 84.927862)"><g><path d="M 1.765625 -19.953125 L 7.390625 -19.953125 L 7.390625 -17.953125 C 8.953125 -19.515625 10.550781 -20.296875 12.1875 -20.296875 C 13.382812 -20.296875 14.296875 -19.863281 14.921875 -19 C 15.554688 -18.132812 15.875 -17.015625 15.875 -15.640625 L 15.875 0 L 10.28125 0 L 10.28125 -14.84375 C 10.28125 -15.34375 10.191406 -15.710938 10.015625 -15.953125 C 9.847656 -16.203125 9.554688 -16.328125 9.140625 -16.328125 C 8.679688 -16.328125 8.097656 -16.082031 7.390625 -15.59375 L 7.390625 0 L 1.765625 0 Z M 1.765625 -19.953125 "/></g></g></g><g fill="#000000" fill-opacity="1"><g transform="translate(346.212564, 84.927862)"><g><path d="M 8.25 6.90625 C 5.945312 6.90625 4.140625 6.5625 2.828125 5.875 C 1.515625 5.195312 0.859375 4.179688 0.859375 2.828125 C 0.859375 1.128906 1.894531 -0.191406 3.96875 -1.140625 C 2.125 -1.640625 1.203125 -2.695312 1.203125 -4.3125 C 1.203125 -5.070312 1.378906 -5.738281 1.734375 -6.3125 C 2.097656 -6.882812 2.660156 -7.507812 3.421875 -8.1875 C 2.109375 -9.351562 1.453125 -11.078125 1.453125 -13.359375 C 1.453125 -15.585938 2.066406 -17.300781 3.296875 -18.5 C 4.523438 -19.695312 6.289062 -20.296875 8.59375 -20.296875 C 10.644531 -20.296875 12.222656 -19.773438 13.328125 -18.734375 C 13.847656 -19.585938 14.648438 -20.28125 15.734375 -20.8125 L 16.46875 -21.15625 L 17.78125 -18.46875 C 17.457031 -18.351562 16.96875 -18.148438 16.3125 -17.859375 C 15.65625 -17.578125 15.109375 -17.304688 14.671875 -17.046875 C 15.203125 -15.941406 15.46875 -14.703125 15.46875 -13.328125 C 15.46875 -11.140625 14.882812 -9.445312 13.71875 -8.25 C 12.5625 -7.050781 10.851562 -6.453125 8.59375 -6.453125 C 7.351562 -6.453125 6.210938 -6.632812 5.171875 -7 C 4.828125 -6.519531 4.65625 -6.117188 4.65625 -5.796875 C 4.65625 -5.523438 4.796875 -5.304688 5.078125 -5.140625 C 5.367188 -4.984375 5.863281 -4.859375 6.5625 -4.765625 L 11.796875 -4.171875 C 13.484375 -3.992188 14.734375 -3.453125 15.546875 -2.546875 C 16.367188 -1.648438 16.78125 -0.457031 16.78125 1.03125 C 16.78125 2.988281 16.101562 4.457031 14.75 5.4375 C 13.40625 6.414062 11.238281 6.90625 8.25 6.90625 Z M 8.59375 -9.796875 C 9.21875 -9.796875 9.628906 -10.050781 9.828125 -10.5625 C 10.035156 -11.070312 10.140625 -12.003906 10.140625 -13.359375 C 10.140625 -14.710938 10.035156 -15.648438 9.828125 -16.171875 C 9.628906 -16.691406 9.21875 -16.953125 8.59375 -16.953125 C 7.96875 -16.953125 7.550781 -16.695312 7.34375 -16.1875 C 7.144531 -15.675781 7.046875 -14.734375 7.046875 -13.359375 C 7.046875 -12.023438 7.144531 -11.097656 7.34375 -10.578125 C 7.550781 -10.054688 7.96875 -9.796875 8.59375 -9.796875 Z M 8.96875 2.828125 C 10.332031 2.828125 11.328125 2.710938 11.953125 2.484375 C 12.585938 2.253906 12.90625 1.84375 12.90625 1.25 C 12.90625 0.757812 12.691406 0.40625 12.265625 0.1875 C 11.835938 -0.03125 11.050781 -0.195312 9.90625 -0.3125 L 6.21875 -0.6875 C 5.4375 -0.09375 5.046875 0.523438 5.046875 1.171875 C 5.046875 1.742188 5.347656 2.160156 5.953125 2.421875 C 6.566406 2.691406 7.570312 2.828125 8.96875 2.828125 Z M 8.96875 2.828125 "/></g></g></g></svg>