<svg xmlns="http://www.w3.org/2000/svg" xmlns:xlink="http://www.w3.org/1999/xlink" width="500" zoomAndPan="magnify" viewBox="0 0 375 149.999998" height="200" preserveAspectRatio="xMidYMid meet" version="1.0"><defs><g/><clipPath id="7e18cd47fa"><path d="M 68.726562 39.339844 L 119.734375 39.339844 L 119.734375 98.816406 L 68.726562 98.816406 Z M 68.726562 39.339844 " clip-rule="nonzero"/></clipPath><clipPath id="1cb83b9ca8"><path d="M 53.984375 32.839844 L 101 32.839844 L 101 89 L 53.984375 89 Z M 53.984375 32.839844 " clip-rule="nonzero"/></clipPath></defs><path fill="#000000" d="M 73.28125 93.347656 L 73.28125 88.003906 C 78.101562 82.398438 78.730469 76.695312 77.292969 70.578125 C 75.355469 62.3125 68.359375 56.980469 65.605469 55.160156 C 68.558594 56.414062 76.527344 60.433594 79.933594 68.324219 C 83.320312 76.171875 82.816406 83.941406 73.28125 93.347656 " fill-opacity="1" fill-rule="nonzero"/><g clip-path="url(#7e18cd47fa)"><path fill="#ffffff" d="M 106.160156 52.179688 C 102.433594 57.980469 100.433594 64.75 100.433594 64.75 C 101.273438 58.183594 104.0625 52.179688 104.0625 52.179688 C 107.339844 44.015625 111.644531 39.386719 111.644531 39.386719 C 111.636719 39.390625 111.632812 39.394531 111.628906 39.398438 C 111.199219 39.6875 102.585938 42.980469 94.996094 69.894531 C 88.394531 93.316406 68.757812 97.304688 68.757812 97.304688 C 68.757812 97.304688 70.644531 97.226562 73.28125 96.644531 L 73.28125 98.816406 L 89.621094 98.816406 C 95.59375 98.816406 100.433594 93.976562 100.433594 88.003906 L 100.433594 79.332031 L 119.734375 79.332031 L 119.734375 62.992188 C 119.734375 57.019531 114.894531 52.179688 108.921875 52.179688 L 106.160156 52.179688 " fill-opacity="1" fill-rule="nonzero"/></g><g clip-path="url(#1cb83b9ca8)"><path fill="#16a220" d="M 90.667969 58.046875 C 90.589844 58.710938 90.402344 59.335938 90.128906 59.886719 C 89.585938 60.980469 88.691406 61.800781 87.546875 62.109375 C 85.125 62.757812 82.511719 60.863281 81.707031 57.871094 C 81.667969 57.726562 81.636719 57.578125 81.605469 57.433594 C 81.375 56.289062 81.449219 55.164062 81.773438 54.191406 C 82.011719 52.214844 83.171875 50.589844 84.894531 50.125 C 87.316406 49.472656 89.929688 51.371094 90.734375 54.359375 C 91.082031 55.660156 91.03125 56.949219 90.667969 58.046875 Z M 84.09375 32.878906 C 78.125 32.878906 73.28125 37.722656 73.28125 43.691406 L 73.28125 52.179688 L 53.984375 52.179688 L 53.984375 68.515625 C 53.984375 72.671875 56.328125 76.28125 59.765625 78.089844 C 61.269531 78.882812 62.980469 79.332031 64.796875 79.332031 L 73.28125 79.332031 L 73.28125 88.003906 C 78.101562 82.398438 78.730469 76.695312 77.292969 70.578125 C 75.355469 62.3125 68.359375 56.980469 65.605469 55.160156 C 64.898438 54.855469 64.480469 54.714844 64.480469 54.714844 C 64.667969 54.738281 64.851562 54.761719 65.03125 54.789062 C 65.300781 54.824219 65.566406 54.867188 65.832031 54.910156 C 73.058594 56.089844 78.453125 59.203125 82.117188 62.136719 C 83.148438 62.964844 84.039062 63.773438 84.796875 64.523438 C 86.589844 66.292969 87.628906 67.71875 87.953125 68.1875 C 88.027344 68.289062 88.0625 68.347656 88.0625 68.347656 C 88.164062 68.105469 88.265625 67.863281 88.371094 67.625 C 92.042969 59.140625 96.449219 52.953125 100.433594 48.570312 L 100.433594 32.878906 L 84.09375 32.878906 " fill-opacity="1" fill-rule="nonzero"/></g><path fill="#000000" d="M 90.667969 58.046875 C 90.589844 58.710938 90.402344 59.335938 90.128906 59.886719 C 89.585938 60.980469 88.691406 61.800781 87.546875 62.109375 C 85.125 62.757812 82.511719 60.863281 81.707031 57.871094 C 81.667969 57.726562 81.636719 57.578125 81.605469 57.433594 C 81.375 56.289062 81.449219 55.164062 81.773438 54.191406 C 81.695312 54.859375 81.71875 55.5625 81.863281 56.28125 C 81.890625 56.425781 81.925781 56.574219 81.964844 56.71875 C 82.769531 59.710938 85.382812 61.605469 87.804688 60.953125 C 88.945312 60.648438 89.84375 59.828125 90.386719 58.734375 C 90.496094 58.515625 90.589844 58.285156 90.667969 58.046875 " fill-opacity="1" fill-rule="nonzero"/><g fill="#000000" fill-opacity="1"><g transform="translate(125.2519, 57.394668)"><g><path d="M 1.921875 -25.921875 L 10.625 -25.921875 C 12.90625 -25.921875 14.609375 -25.273438 15.734375 -23.984375 C 16.867188 -22.691406 17.4375 -20.832031 17.4375 -18.40625 C 17.4375 -15.625 16.78125 -13.695312 15.46875 -12.625 C 14.15625 -11.550781 12.316406 -11.015625 9.953125 -11.015625 L 7.640625 -11.015625 L 7.640625 0 L 1.921875 0 Z M 9.5625 -15.015625 C 10.570312 -15.015625 11.238281 -15.28125 11.5625 -15.8125 C 11.894531 -16.34375 12.0625 -17.238281 12.0625 -18.5 C 12.0625 -19.644531 11.898438 -20.492188 11.578125 -21.046875 C 11.265625 -21.609375 10.582031 -21.890625 9.53125 -21.890625 L 7.640625 -21.890625 L 7.640625 -15.015625 Z M 9.5625 -15.015625 "/></g></g></g><g fill="#000000" fill-opacity="1"><g transform="translate(143.519404, 57.394668)"><g><path d="M 4.890625 0.3125 C 3.785156 0.3125 2.929688 -0.0820312 2.328125 -0.875 C 1.734375 -1.675781 1.4375 -2.71875 1.4375 -4 L 1.4375 -18.5 L 6.65625 -18.5 L 6.65625 -4.609375 C 6.65625 -4.140625 6.738281 -3.785156 6.90625 -3.546875 C 7.082031 -3.316406 7.363281 -3.203125 7.75 -3.203125 C 8.082031 -3.203125 8.59375 -3.394531 9.28125 -3.78125 L 9.28125 -18.5 L 14.46875 -18.5 L 14.46875 0 L 9.28125 0 L 9.28125 -1.703125 C 7.832031 -0.359375 6.367188 0.3125 4.890625 0.3125 Z M 4.890625 0.3125 "/></g></g></g><g fill="#000000" fill-opacity="1"><g transform="translate(159.643442, 57.394668)"><g><path d="M 7.328125 0.3125 C 5.679688 0.3125 4.316406 -0.0507812 3.234375 -0.78125 C 2.160156 -1.519531 1.296875 -2.695312 0.640625 -4.3125 L 4.1875 -5.890625 C 4.53125 -5.035156 4.929688 -4.375 5.390625 -3.90625 C 5.847656 -3.4375 6.351562 -3.203125 6.90625 -3.203125 C 7.71875 -3.203125 8.125 -3.519531 8.125 -4.15625 C 8.125 -4.625 7.960938 -5.046875 7.640625 -5.421875 C 7.328125 -5.796875 6.632812 -6.421875 5.5625 -7.296875 L 4.21875 -8.421875 C 3.113281 -9.359375 2.3125 -10.207031 1.8125 -10.96875 C 1.3125 -11.738281 1.0625 -12.660156 1.0625 -13.734375 C 1.0625 -14.710938 1.320312 -15.582031 1.84375 -16.34375 C 2.363281 -17.113281 3.0625 -17.71875 3.9375 -18.15625 C 4.8125 -18.59375 5.75 -18.8125 6.75 -18.8125 C 8.269531 -18.8125 9.535156 -18.398438 10.546875 -17.578125 C 11.554688 -16.765625 12.273438 -15.585938 12.703125 -14.046875 L 9.34375 -12.515625 C 9.132812 -13.191406 8.804688 -13.800781 8.359375 -14.34375 C 7.910156 -14.894531 7.414062 -15.171875 6.875 -15.171875 C 6.539062 -15.171875 6.269531 -15.070312 6.0625 -14.875 C 5.863281 -14.6875 5.765625 -14.429688 5.765625 -14.109375 C 5.765625 -13.722656 5.972656 -13.304688 6.390625 -12.859375 C 6.804688 -12.410156 7.460938 -11.828125 8.359375 -11.109375 L 9.65625 -9.953125 C 10.726562 -9.054688 11.550781 -8.21875 12.125 -7.4375 C 12.695312 -6.65625 12.984375 -5.742188 12.984375 -4.703125 C 12.984375 -3.660156 12.722656 -2.757812 12.203125 -2 C 11.679688 -1.238281 10.988281 -0.660156 10.125 -0.265625 C 9.257812 0.117188 8.328125 0.3125 7.328125 0.3125 Z M 7.328125 0.3125 "/></g></g></g><g fill="#000000" fill-opacity="1"><g transform="translate(173.208111, 57.394668)"><g><path d="M 1.625 -25.921875 L 6.8125 -25.921875 L 6.8125 -11.546875 L 11.359375 -18.5 L 17.21875 -18.5 L 12.28125 -10.90625 L 17.15625 0 L 11.453125 0 L 8.1875 -8.796875 L 6.8125 -7.046875 L 6.8125 0 L 1.625 0 Z M 1.625 -25.921875 "/></g></g></g><g fill="#000000" fill-opacity="1"><g transform="translate(190.515857, 57.394668)"><g><path d="M 7.6875 0.3125 C 5.65625 0.3125 4.070312 -0.222656 2.9375 -1.296875 C 1.8125 -2.367188 1.25 -3.890625 1.25 -5.859375 L 1.25 -12.640625 C 1.25 -14.597656 1.8125 -16.113281 2.9375 -17.1875 C 4.070312 -18.269531 5.65625 -18.8125 7.6875 -18.8125 C 9.726562 -18.8125 11.257812 -18.289062 12.28125 -17.25 C 13.3125 -16.207031 13.828125 -14.671875 13.828125 -12.640625 L 13.828125 -8.921875 L 6.40625 -8.921875 L 6.40625 -5.375 C 6.40625 -4.050781 6.832031 -3.390625 7.6875 -3.390625 C 8.582031 -3.390625 9.03125 -3.988281 9.03125 -5.1875 L 9.03125 -7.140625 L 13.828125 -7.140625 L 13.828125 -5.34375 C 13.828125 -3.488281 13.285156 -2.082031 12.203125 -1.125 C 11.128906 -0.164062 9.625 0.3125 7.6875 0.3125 Z M 9.03125 -11.359375 L 9.03125 -13.21875 C 9.03125 -13.894531 8.90625 -14.378906 8.65625 -14.671875 C 8.40625 -14.960938 8.066406 -15.109375 7.640625 -15.109375 C 7.242188 -15.109375 6.9375 -14.945312 6.71875 -14.625 C 6.507812 -14.300781 6.40625 -13.734375 6.40625 -12.921875 L 6.40625 -11.359375 Z M 9.03125 -11.359375 "/></g></g></g><g fill="#000000" fill-opacity="1"><g transform="translate(205.552157, 57.394668)"><g><path d="M 7.328125 0.3125 C 5.679688 0.3125 4.316406 -0.0507812 3.234375 -0.78125 C 2.160156 -1.519531 1.296875 -2.695312 0.640625 -4.3125 L 4.1875 -5.890625 C 4.53125 -5.035156 4.929688 -4.375 5.390625 -3.90625 C 5.847656 -3.4375 6.351562 -3.203125 6.90625 -3.203125 C 7.71875 -3.203125 8.125 -3.519531 8.125 -4.15625 C 8.125 -4.625 7.960938 -5.046875 7.640625 -5.421875 C 7.328125 -5.796875 6.632812 -6.421875 5.5625 -7.296875 L 4.21875 -8.421875 C 3.113281 -9.359375 2.3125 -10.207031 1.8125 -10.96875 C 1.3125 -11.738281 1.0625 -12.660156 1.0625 -13.734375 C 1.0625 -14.710938 1.320312 -15.582031 1.84375 -16.34375 C 2.363281 -17.113281 3.0625 -17.71875 3.9375 -18.15625 C 4.8125 -18.59375 5.75 -18.8125 6.75 -18.8125 C 8.269531 -18.8125 9.535156 -18.398438 10.546875 -17.578125 C 11.554688 -16.765625 12.273438 -15.585938 12.703125 -14.046875 L 9.34375 -12.515625 C 9.132812 -13.191406 8.804688 -13.800781 8.359375 -14.34375 C 7.910156 -14.894531 7.414062 -15.171875 6.875 -15.171875 C 6.539062 -15.171875 6.269531 -15.070312 6.0625 -14.875 C 5.863281 -14.6875 5.765625 -14.429688 5.765625 -14.109375 C 5.765625 -13.722656 5.972656 -13.304688 6.390625 -12.859375 C 6.804688 -12.410156 7.460938 -11.828125 8.359375 -11.109375 L 9.65625 -9.953125 C 10.726562 -9.054688 11.550781 -8.21875 12.125 -7.4375 C 12.695312 -6.65625 12.984375 -5.742188 12.984375 -4.703125 C 12.984375 -3.660156 12.722656 -2.757812 12.203125 -2 C 11.679688 -1.238281 10.988281 -0.660156 10.125 -0.265625 C 9.257812 0.117188 8.328125 0.3125 7.328125 0.3125 Z M 7.328125 0.3125 "/></g></g></g><g fill="#000000" fill-opacity="1"><g transform="translate(219.116826, 57.394668)"><g><path d="M 1.625 -18.5 L 6.75 -18.5 L 6.75 -17.03125 C 7.988281 -18.238281 9.453125 -18.84375 11.140625 -18.84375 C 11.878906 -18.84375 12.519531 -18.65625 13.0625 -18.28125 C 13.613281 -17.914062 14.023438 -17.367188 14.296875 -16.640625 C 15.597656 -18.109375 17.171875 -18.84375 19.015625 -18.84375 C 20.097656 -18.84375 20.960938 -18.441406 21.609375 -17.640625 C 22.265625 -16.847656 22.59375 -15.757812 22.59375 -14.375 L 22.59375 0 L 17.46875 0 L 17.46875 -13.828125 C 17.46875 -14.335938 17.375 -14.703125 17.1875 -14.921875 C 17.007812 -15.148438 16.742188 -15.265625 16.390625 -15.265625 C 16.148438 -15.265625 15.867188 -15.203125 15.546875 -15.078125 C 15.234375 -14.960938 14.9375 -14.800781 14.65625 -14.59375 L 14.65625 0 L 9.59375 0 L 9.59375 -13.828125 C 9.59375 -14.785156 9.222656 -15.265625 8.484375 -15.265625 C 7.992188 -15.265625 7.414062 -15.039062 6.75 -14.59375 L 6.75 0 L 1.625 0 Z M 1.625 -18.5 "/></g></g></g><g fill="#000000" fill-opacity="1"><g transform="translate(243.206901, 57.394668)"><g><path d="M 5.4375 0.3125 C 4.539062 0.3125 3.765625 0.0976562 3.109375 -0.328125 C 2.460938 -0.765625 1.972656 -1.332031 1.640625 -2.03125 C 1.316406 -2.726562 1.15625 -3.445312 1.15625 -4.1875 C 1.15625 -5.625 1.515625 -6.800781 2.234375 -7.71875 C 2.960938 -8.632812 3.832031 -9.347656 4.84375 -9.859375 C 5.863281 -10.367188 7.171875 -10.898438 8.765625 -11.453125 L 8.765625 -13.3125 C 8.765625 -13.84375 8.679688 -14.242188 8.515625 -14.515625 C 8.359375 -14.796875 8.082031 -14.9375 7.6875 -14.9375 C 7.28125 -14.9375 6.988281 -14.804688 6.8125 -14.546875 C 6.644531 -14.296875 6.550781 -13.9375 6.53125 -13.46875 L 6.40625 -12.125 L 1.53125 -12.3125 C 1.613281 -14.53125 2.195312 -16.164062 3.28125 -17.21875 C 4.375 -18.28125 6 -18.8125 8.15625 -18.8125 C 9.96875 -18.8125 11.351562 -18.304688 12.3125 -17.296875 C 13.28125 -16.285156 13.765625 -14.9375 13.765625 -13.25 L 13.765625 -4.609375 C 13.765625 -2.734375 13.867188 -1.195312 14.078125 0 L 9.40625 0 C 9.21875 -1.425781 9.078125 -2.300781 8.984375 -2.625 C 8.734375 -1.769531 8.304688 -1.066406 7.703125 -0.515625 C 7.109375 0.0351562 6.351562 0.3125 5.4375 0.3125 Z M 7.296875 -3.203125 C 7.828125 -3.203125 8.316406 -3.507812 8.765625 -4.125 L 8.765625 -9.1875 C 7.804688 -8.632812 7.082031 -8.050781 6.59375 -7.4375 C 6.101562 -6.832031 5.859375 -6.09375 5.859375 -5.21875 C 5.859375 -4.59375 5.984375 -4.097656 6.234375 -3.734375 C 6.492188 -3.378906 6.847656 -3.203125 7.296875 -3.203125 Z M 7.296875 -3.203125 "/></g></g></g><g fill="#000000" fill-opacity="1"><g transform="translate(258.435153, 57.394668)"><g><path d="M 7.328125 0.3125 C 5.679688 0.3125 4.316406 -0.0507812 3.234375 -0.78125 C 2.160156 -1.519531 1.296875 -2.695312 0.640625 -4.3125 L 4.1875 -5.890625 C 4.53125 -5.035156 4.929688 -4.375 5.390625 -3.90625 C 5.847656 -3.4375 6.351562 -3.203125 6.90625 -3.203125 C 7.71875 -3.203125 8.125 -3.519531 8.125 -4.15625 C 8.125 -4.625 7.960938 -5.046875 7.640625 -5.421875 C 7.328125 -5.796875 6.632812 -6.421875 5.5625 -7.296875 L 4.21875 -8.421875 C 3.113281 -9.359375 2.3125 -10.207031 1.8125 -10.96875 C 1.3125 -11.738281 1.0625 -12.660156 1.0625 -13.734375 C 1.0625 -14.710938 1.320312 -15.582031 1.84375 -16.34375 C 2.363281 -17.113281 3.0625 -17.71875 3.9375 -18.15625 C 4.8125 -18.59375 5.75 -18.8125 6.75 -18.8125 C 8.269531 -18.8125 9.535156 -18.398438 10.546875 -17.578125 C 11.554688 -16.765625 12.273438 -15.585938 12.703125 -14.046875 L 9.34375 -12.515625 C 9.132812 -13.191406 8.804688 -13.800781 8.359375 -14.34375 C 7.910156 -14.894531 7.414062 -15.171875 6.875 -15.171875 C 6.539062 -15.171875 6.269531 -15.070312 6.0625 -14.875 C 5.863281 -14.6875 5.765625 -14.429688 5.765625 -14.109375 C 5.765625 -13.722656 5.972656 -13.304688 6.390625 -12.859375 C 6.804688 -12.410156 7.460938 -11.828125 8.359375 -11.109375 L 9.65625 -9.953125 C 10.726562 -9.054688 11.550781 -8.21875 12.125 -7.4375 C 12.695312 -6.65625 12.984375 -5.742188 12.984375 -4.703125 C 12.984375 -3.660156 12.722656 -2.757812 12.203125 -2 C 11.679688 -1.238281 10.988281 -0.660156 10.125 -0.265625 C 9.257812 0.117188 8.328125 0.3125 7.328125 0.3125 Z M 7.328125 0.3125 "/></g></g></g><g fill="#000000" fill-opacity="1"><g transform="translate(140.943305, 93.394666)"><g><path d="M 9.34375 0.390625 C 6.53125 0.390625 4.53125 -0.347656 3.34375 -1.828125 C 2.15625 -3.316406 1.5625 -5.457031 1.5625 -8.25 L 1.5625 -17.59375 C 1.5625 -20.457031 2.148438 -22.617188 3.328125 -24.078125 C 4.503906 -25.535156 6.507812 -26.265625 9.34375 -26.265625 C 12.050781 -26.265625 13.96875 -25.613281 15.09375 -24.3125 C 16.226562 -23.019531 16.796875 -21.175781 16.796875 -18.78125 L 16.796875 -16.546875 L 11.203125 -16.546875 L 11.203125 -19.140625 C 11.203125 -20.140625 11.09375 -20.90625 10.875 -21.4375 C 10.664062 -21.96875 10.15625 -22.234375 9.34375 -22.234375 C 8.53125 -22.234375 7.992188 -21.953125 7.734375 -21.390625 C 7.484375 -20.828125 7.359375 -20.046875 7.359375 -19.046875 L 7.359375 -6.84375 C 7.359375 -5.820312 7.488281 -5.039062 7.75 -4.5 C 8.019531 -3.957031 8.550781 -3.6875 9.34375 -3.6875 C 10.132812 -3.6875 10.640625 -3.957031 10.859375 -4.5 C 11.085938 -5.039062 11.203125 -5.820312 11.203125 -6.84375 L 11.203125 -9.5625 L 16.796875 -9.5625 L 16.796875 -7.328125 C 16.796875 -4.898438 16.226562 -3.003906 15.09375 -1.640625 C 13.96875 -0.285156 12.050781 0.390625 9.34375 0.390625 Z M 9.34375 0.390625 "/></g></g></g><g fill="#000000" fill-opacity="1"><g transform="translate(158.954874, 93.394666)"><g><path d="M 1.625 -25.25 L 6.875 -25.25 L 6.875 -21.625 L 1.625 -21.625 Z M 1.65625 -18.5 L 6.875 -18.5 L 6.875 0 L 1.65625 0 Z M 1.65625 -18.5 "/></g></g></g><g fill="#000000" fill-opacity="1"><g transform="translate(167.432794, 93.394666)"><g><path d="M 1.625 -25.921875 L 6.8125 -25.921875 L 6.8125 -11.546875 L 11.359375 -18.5 L 17.21875 -18.5 L 12.28125 -10.90625 L 17.15625 0 L 11.453125 0 L 8.1875 -8.796875 L 6.8125 -7.046875 L 6.8125 0 L 1.625 0 Z M 1.625 -25.921875 "/></g></g></g><g fill="#000000" fill-opacity="1"><g transform="translate(184.74054, 93.394666)"><g><path d="M 5.4375 0.3125 C 4.539062 0.3125 3.765625 0.0976562 3.109375 -0.328125 C 2.460938 -0.765625 1.972656 -1.332031 1.640625 -2.03125 C 1.316406 -2.726562 1.15625 -3.445312 1.15625 -4.1875 C 1.15625 -5.625 1.515625 -6.800781 2.234375 -7.71875 C 2.960938 -8.632812 3.832031 -9.347656 4.84375 -9.859375 C 5.863281 -10.367188 7.171875 -10.898438 8.765625 -11.453125 L 8.765625 -13.3125 C 8.765625 -13.84375 8.679688 -14.242188 8.515625 -14.515625 C 8.359375 -14.796875 8.082031 -14.9375 7.6875 -14.9375 C 7.28125 -14.9375 6.988281 -14.804688 6.8125 -14.546875 C 6.644531 -14.296875 6.550781 -13.9375 6.53125 -13.46875 L 6.40625 -12.125 L 1.53125 -12.3125 C 1.613281 -14.53125 2.195312 -16.164062 3.28125 -17.21875 C 4.375 -18.28125 6 -18.8125 8.15625 -18.8125 C 9.96875 -18.8125 11.351562 -18.304688 12.3125 -17.296875 C 13.28125 -16.285156 13.765625 -14.9375 13.765625 -13.25 L 13.765625 -4.609375 C 13.765625 -2.734375 13.867188 -1.195312 14.078125 0 L 9.40625 0 C 9.21875 -1.425781 9.078125 -2.300781 8.984375 -2.625 C 8.734375 -1.769531 8.304688 -1.066406 7.703125 -0.515625 C 7.109375 0.0351562 6.351562 0.3125 5.4375 0.3125 Z M 7.296875 -3.203125 C 7.828125 -3.203125 8.316406 -3.507812 8.765625 -4.125 L 8.765625 -9.1875 C 7.804688 -8.632812 7.082031 -8.050781 6.59375 -7.4375 C 6.101562 -6.832031 5.859375 -6.09375 5.859375 -5.21875 C 5.859375 -4.59375 5.984375 -4.097656 6.234375 -3.734375 C 6.492188 -3.378906 6.847656 -3.203125 7.296875 -3.203125 Z M 7.296875 -3.203125 "/></g></g></g><g fill="#000000" fill-opacity="1"><g transform="translate(199.968792, 93.394666)"><g><path d="M 2.046875 -25.25 L 7.265625 -25.25 L 7.265625 -21.625 L 2.046875 -21.625 Z M 2.5 5.765625 C 1.539062 5.765625 0.613281 5.625 -0.28125 5.34375 L -0.28125 1.59375 C 0.09375 1.6875 0.398438 1.734375 0.640625 1.734375 C 1.578125 1.734375 2.046875 1.207031 2.046875 0.15625 L 2.046875 -18.5 L 7.265625 -18.5 L 7.265625 0.796875 C 7.265625 2.296875 6.851562 3.5 6.03125 4.40625 C 5.207031 5.3125 4.03125 5.765625 2.5 5.765625 Z M 2.5 5.765625 "/></g></g></g><g fill="#000000" fill-opacity="1"><g transform="translate(208.830616, 93.394666)"><g><path d="M 5.4375 0.3125 C 4.539062 0.3125 3.765625 0.0976562 3.109375 -0.328125 C 2.460938 -0.765625 1.972656 -1.332031 1.640625 -2.03125 C 1.316406 -2.726562 1.15625 -3.445312 1.15625 -4.1875 C 1.15625 -5.625 1.515625 -6.800781 2.234375 -7.71875 C 2.960938 -8.632812 3.832031 -9.347656 4.84375 -9.859375 C 5.863281 -10.367188 7.171875 -10.898438 8.765625 -11.453125 L 8.765625 -13.3125 C 8.765625 -13.84375 8.679688 -14.242188 8.515625 -14.515625 C 8.359375 -14.796875 8.082031 -14.9375 7.6875 -14.9375 C 7.28125 -14.9375 6.988281 -14.804688 6.8125 -14.546875 C 6.644531 -14.296875 6.550781 -13.9375 6.53125 -13.46875 L 6.40625 -12.125 L 1.53125 -12.3125 C 1.613281 -14.53125 2.195312 -16.164062 3.28125 -17.21875 C 4.375 -18.28125 6 -18.8125 8.15625 -18.8125 C 9.96875 -18.8125 11.351562 -18.304688 12.3125 -17.296875 C 13.28125 -16.285156 13.765625 -14.9375 13.765625 -13.25 L 13.765625 -4.609375 C 13.765625 -2.734375 13.867188 -1.195312 14.078125 0 L 9.40625 0 C 9.21875 -1.425781 9.078125 -2.300781 8.984375 -2.625 C 8.734375 -1.769531 8.304688 -1.066406 7.703125 -0.515625 C 7.109375 0.0351562 6.351562 0.3125 5.4375 0.3125 Z M 7.296875 -3.203125 C 7.828125 -3.203125 8.316406 -3.507812 8.765625 -4.125 L 8.765625 -9.1875 C 7.804688 -8.632812 7.082031 -8.050781 6.59375 -7.4375 C 6.101562 -6.832031 5.859375 -6.09375 5.859375 -5.21875 C 5.859375 -4.59375 5.984375 -4.097656 6.234375 -3.734375 C 6.492188 -3.378906 6.847656 -3.203125 7.296875 -3.203125 Z M 7.296875 -3.203125 "/></g></g></g><g fill="#000000" fill-opacity="1"><g transform="translate(224.058867, 93.394666)"><g><path d="M 1.625 -18.5 L 6.84375 -18.5 L 6.84375 -16.640625 C 8.300781 -18.085938 9.785156 -18.8125 11.296875 -18.8125 C 12.398438 -18.8125 13.242188 -18.410156 13.828125 -17.609375 C 14.421875 -16.816406 14.71875 -15.78125 14.71875 -14.5 L 14.71875 0 L 9.53125 0 L 9.53125 -13.765625 C 9.53125 -14.234375 9.453125 -14.578125 9.296875 -14.796875 C 9.140625 -15.023438 8.867188 -15.140625 8.484375 -15.140625 C 8.054688 -15.140625 7.507812 -14.914062 6.84375 -14.46875 L 6.84375 0 L 1.625 0 Z M 1.625 -18.5 "/></g></g></g><g fill="#000000" fill-opacity="1"><g transform="translate(240.278875, 93.394666)"><g><path d="M 7.640625 6.40625 C 5.515625 6.40625 3.84375 6.085938 2.625 5.453125 C 1.40625 4.828125 0.796875 3.882812 0.796875 2.625 C 0.796875 1.039062 1.757812 -0.1875 3.6875 -1.0625 C 1.976562 -1.53125 1.125 -2.507812 1.125 -4 C 1.125 -4.707031 1.285156 -5.328125 1.609375 -5.859375 C 1.941406 -6.390625 2.460938 -6.960938 3.171875 -7.578125 C 1.953125 -8.671875 1.34375 -10.273438 1.34375 -12.390625 C 1.34375 -14.453125 1.910156 -16.035156 3.046875 -17.140625 C 4.191406 -18.253906 5.832031 -18.8125 7.96875 -18.8125 C 9.863281 -18.8125 11.328125 -18.332031 12.359375 -17.375 C 12.847656 -18.164062 13.59375 -18.804688 14.59375 -19.296875 L 15.265625 -19.609375 L 16.484375 -17.125 C 16.179688 -17.007812 15.722656 -16.816406 15.109375 -16.546875 C 14.503906 -16.285156 14 -16.039062 13.59375 -15.8125 C 14.09375 -14.78125 14.34375 -13.628906 14.34375 -12.359375 C 14.34375 -10.328125 13.800781 -8.753906 12.71875 -7.640625 C 11.644531 -6.535156 10.0625 -5.984375 7.96875 -5.984375 C 6.8125 -5.984375 5.753906 -6.15625 4.796875 -6.5 C 4.472656 -6.050781 4.3125 -5.675781 4.3125 -5.375 C 4.3125 -5.113281 4.445312 -4.910156 4.71875 -4.765625 C 4.988281 -4.617188 5.441406 -4.503906 6.078125 -4.421875 L 10.9375 -3.875 C 12.5 -3.695312 13.65625 -3.191406 14.40625 -2.359375 C 15.164062 -1.535156 15.546875 -0.429688 15.546875 0.953125 C 15.546875 2.773438 14.921875 4.140625 13.671875 5.046875 C 12.429688 5.953125 10.421875 6.40625 7.640625 6.40625 Z M 7.96875 -9.09375 C 8.539062 -9.09375 8.921875 -9.328125 9.109375 -9.796875 C 9.304688 -10.265625 9.40625 -11.128906 9.40625 -12.390625 C 9.40625 -13.640625 9.304688 -14.503906 9.109375 -14.984375 C 8.921875 -15.472656 8.539062 -15.71875 7.96875 -15.71875 C 7.394531 -15.71875 7.007812 -15.476562 6.8125 -15 C 6.625 -14.53125 6.53125 -13.660156 6.53125 -12.390625 C 6.53125 -11.148438 6.625 -10.289062 6.8125 -9.8125 C 7.007812 -9.332031 7.394531 -9.09375 7.96875 -9.09375 Z M 8.3125 2.625 C 9.570312 2.625 10.492188 2.515625 11.078125 2.296875 C 11.671875 2.085938 11.96875 1.707031 11.96875 1.15625 C 11.96875 0.707031 11.769531 0.378906 11.375 0.171875 C 10.976562 -0.0234375 10.25 -0.175781 9.1875 -0.28125 L 5.765625 -0.640625 C 5.035156 -0.0859375 4.671875 0.488281 4.671875 1.09375 C 4.671875 1.625 4.953125 2.007812 5.515625 2.25 C 6.085938 2.5 7.019531 2.625 8.3125 2.625 Z M 8.3125 2.625 "/></g></g></g></svg>